<svg xmlns="http://www.w3.org/2000/svg" viewBox="0 0 496 496"><defs><style>.cls-1{fill:#efefef;}</style></defs><title>logo</title><g id="Layer_2" data-name="Layer 2"><circle class="cls-1" cx="248" cy="248" r="248"/><path d="M455.6,431.83c3.85-6.26,7.57-12.56,11.32-18.85s7.46-12.6,11.14-18.92q11-19,21.81-38c3.63-6.34,7.16-12.72,10.73-19.08s7.13-12.73,10.63-19.12,7-12.79,10.39-19.21l10.16-19.3,2.72-5.16,1.85,5.43c4,11.8,8.11,23.59,12,35.41,2,5.91,4,11.81,5.9,17.73l5.79,17.76,23.14,71L592,420.8l70,.38,70,.47v.43l-70,.47-70,.38h-.92l-.27-.77L566,351.53l-6.21-17.66c-2.08-5.88-4.06-11.79-6.1-17.68-4.09-11.78-8-23.61-12-35.42l4.57.27-10.09,19.32c-3.32,6.46-6.64,12.92-9.86,19.41s-6.44,13-9.62,19.5-6.4,13-9.52,19.54q-9.46,19.56-18.69,39.21c-3.07,6.55-6.13,13.11-9.11,19.7s-6,13.15-8.93,19.76Z" transform="translate(-361.98 -117.83)"/></g></svg>